# xmcd
#
# Track frame offsets:
#	150
#	10517
#	21777
#	36427
#	48642
#	60650
#	67337
#	80202
#	96385
#	108385
#	118197
#	131300
#
# Disc length: 1939 seconds
#
# Revision: 0
# Processed by: cddbd v1.4PL0 Copyright (c) Steve Scherf et al.
# Submitted via: EasyCDDAExtractor 4.6.9.1
#
DISCID=aa07910c
DTITLE=Various Artist - Winter Wonderland
DYEAR=1991
DGENRE=Country
TTITLE0=Winter Wonderland
TTITLE1=Let It Snow
TTITLE2=Silent Night
TTITLE3=Jingle Bells
TTITLE4=O Christmas Tree
TTITLE5=We Wish You A Merry Christmas
TTITLE6=What Child Is This
TTITLE7=O Holy Night
TTITLE8=I Heard The Bells On Christmas Day
TTITLE9=Deck The Halls
TTITLE10=Angels We Have Heard On High
TTITLE11=O Come All Ye Faithful
EXTD=
EXTT0=
EXTT1=
EXTT2=
EXTT3=
EXTT4=
EXTT5=
EXTT6=
EXTT7=
EXTT8=
EXTT9=
EXTT10=
EXTT11=
PLAYORDER=
